# xmcd
#
# Track frame offsets: 
#        150
#        11220
#        36367
#        49567
#        63244
#        79748
#        95289
#        106708
#        121988
#        142411
#        154248
#        167248
#        180223
#        197608
#        210321
#        222884
#
# Disc length: 3174 seconds
#
# Revision: 0
# Processed by: cddbd v1.5.2PL0 Copyright (c) Steve Scherf et al.
# Submitted via: ExactAudioCopy v1.0b3
#
DISCID=d50c6410
DTITLE=Smith - A Group Called Smith
DYEAR=1900
DGENRE=
TTITLE0=BABY IT'S YOU (45 version)
TTITLE1=THE LAST TIME 
TTITLE2=WHO DO YOU LOVE 
TTITLE3=I'LL HOLD OUT MY HAND 
TTITLE4=I DON'T BELIEVE
TTITLE5=LET'S GET TOGETHER 
TTITLE6=MOJELESKEY BRIDGE 
TTITLE7=TELL HIM NO 
TTITLE8=THE WEIGHT 
TTITLE9=I JUST WANNA MAKE LOVE TO YOU 
TTITLE10=WHAT AM I GONNA DO
TTITLE11=TAKE A LOOK AROUND 
TTITLE12=LET'S SPEND THE NIGHT TOGETHER 
TTITLE13=IT'S A CRYIN' SHAME-GAYLE McCORMICK 
TTITLE14=GONNA BE ALRIGHT NOW-GAYLE McCORMICK 
TTITLE15=BABY IT'S YOU (LP version)
EXTD=
EXTT0=
EXTT1=
EXTT2=
EXTT3=
EXTT4=
EXTT5=
EXTT6=
EXTT7=
EXTT8=
EXTT9=
EXTT10=
EXTT11=
EXTT12=
EXTT13=
EXTT14=
EXTT15=
PLAYORDER=
